<?xml version="1.0" encoding="utf-8"?>
<!-- Uploaded to: SVG Repo, www.svgrepo.com, Generator: SVG Repo Mixer Tools -->
<svg width="800px" height="800px" viewBox="0 0 1024 1024" class="icon"  version="1.1" xmlns="http://www.w3.org/2000/svg"><path d="M551.901 126.168c-17.673 0-32 14.327-32 32V319c0 17.673 14.327 32 32 32 17.673 0 32-14.327 32-32V158.169c0.001-17.674-14.326-32.001-32-32.001z" fill="#2CC4FE" /><path d="M551.901 355c-19.851 0-36-16.149-36-36V158.169c0-19.851 16.149-36 36-36s36 16.149 36 36V319c0 19.851-16.149 36-36 36z m0-224.831c-15.439 0-28 12.561-28 28V319c0 15.439 12.561 28 28 28s28-12.561 28-28V158.169c0-15.44-12.56-28-28-28z" fill="#515151" /><path d="M231.901 126.168c-17.673 0-32 14.327-32 32V323c0 17.673 14.327 32 32 32 17.673 0 32-14.327 32-32V158.169c0-17.674-14.327-32.001-32-32.001z" fill="#2CC4FE" /><path d="M231.9 359c-19.851 0-36-16.149-36-36V158.169c0-19.851 16.149-36 36-36s36 16.149 36 36V323c0.001 19.851-16.149 36-36 36z m0-228.831c-15.439 0-28 12.561-28 28V323c0 15.439 12.561 28 28 28s28-12.561 28-28V158.169c0.001-15.44-12.56-28-28-28z" fill="#515151" /><path d="M647.935 441.836H135.934c-35.346 0-64-28.654-64-64 0-35.346 28.654-64 64-64h512.001c35.346 0 64 28.654 64 64 0 35.346-28.654 64-64 64z" fill="#2CC4FE" /><path d="M647.935 445.836h-512c-37.496 0-68-30.505-68-68 0-37.496 30.505-68.001 68-68.001h512c37.496 0 68 30.505 68 68.001 0 37.495-30.505 68-68 68zM135.934 317.835c-33.084 0-60 26.916-60 60.001 0 33.084 26.916 60 60 60h512c33.084 0 60-26.916 60-60 0-33.085-26.916-60.001-60-60.001h-512z" fill="#515151" /><path d="M391.917 761.835c-141.376 0-255.983-114.607-255.983-255.983v-64.016H647.9v64.016c0 141.376-114.607 255.983-255.983 255.983z" fill="#2CC4FE" /><path d="M391.917 765.835c-69.444 0-134.732-27.043-183.836-76.147-49.104-49.104-76.147-114.392-76.147-183.835v-68.017H651.9v68.017c0 69.443-27.043 134.731-76.147 183.835-49.104 49.104-114.392 76.147-183.836 76.147zM139.934 445.836v60.017c0 138.943 113.039 251.982 251.983 251.982 138.944 0 251.983-113.039 251.983-251.982v-60.017H139.934z" fill="#515151" /><path d="M551.467 902.435c-47.871 0-86.23-11.934-114.497-35.706-48.991-41.201-49.073-102.26-49.052-104.842 0.018-2.198 1.805-3.886 4-3.886h0.032c2.209 0 3.986 1.74 3.968 3.949-0.003 0.789 0.238 60.111 46.281 98.765 38.395 32.233 96.977 41.431 174.117 27.371 114.158-20.802 121.361-91.426 128.327-159.716 1.39-13.626 2.828-27.722 5.135-40.888 2.861-16.324 11.692-33.393 24.866-48.056 13.785-15.343 31.064-26.936 49.971-33.522 39.147-13.639 79.981-4.011 114.977 27.111a4 4 0 1 1-5.316 5.978c-32.731-29.108-70.742-38.175-107.029-25.535-34.789 12.119-64.056 43.829-69.589 75.4-2.258 12.883-3.617 26.207-5.056 40.314-3.542 34.723-7.205 70.628-25.031 100.95-20.293 34.518-56.215 56.046-109.821 65.814-23.788 4.335-45.899 6.498-66.283 6.499z" fill="#515151" /><path d="M631.822 410.536H152.046c-18.06 0-32.7-14.64-32.7-32.7 0-18.06 14.64-32.7 32.7-32.7h479.776c18.06 0 32.7 14.64 32.7 32.7 0.001 18.06-14.64 32.7-32.7 32.7z" fill="#A1E4FD" /></svg>