<?xml version="1.0" encoding="utf-8"?>
<!-- Uploaded to: SVG Repo, www.svgrepo.com, Generator: SVG Repo Mixer Tools -->
<svg width="800px" height="800px" viewBox="0 0 1024 1024" class="icon"  version="1.1" xmlns="http://www.w3.org/2000/svg"><path d="M475.500089 922.669511H88.314311V364.839822a60.381867 60.381867 0 0 1 60.381867-60.381866h266.422044a60.381867 60.381867 0 0 1 60.381867 60.381866v286.867911" fill="#47A7DD" /><path d="M233.801956 304.457956h-85.105778a60.393244 60.393244 0 0 0-60.393245 60.381866v557.818311h85.0944V364.839822a60.404622 60.404622 0 0 1 60.404623-60.381866z" fill="#3F9EC9" /><path d="M764.689067 805.0688H344.234667a68.516978 68.516978 0 0 1-1.695289-15.1552c0-13.152711 3.7888-25.440711 10.296889-35.794489l196.949333-31.561955h137.193244l77.710223 82.511644z" fill="#F4819A" /><path d="M686.967467 805.0688H309.6576v29.627733a87.972978 87.972978 0 0 0 87.972978 87.972978h339.592533" fill="#E6E6E6" /><path d="M397.118578 834.685156v-29.627734H309.6576v29.627734a87.972978 87.972978 0 0 0 87.972978 87.972977h87.4496a87.950222 87.950222 0 0 1-87.9616-87.972977z" fill="#CCCCCC" /><path d="M931.134578 363.997867v558.671644h-244.167111V363.997867a49.857422 49.857422 0 0 1 49.857422-49.846045h144.463644a49.857422 49.857422 0 0 1 49.846045 49.846045z" fill="#49DB95" /><path d="M802.338133 314.151822H736.824889a49.857422 49.857422 0 0 0-49.857422 49.857422v558.660267h65.501866V364.009244a49.857422 49.857422 0 0 1 49.8688-49.857422z" fill="#42C684" /><path d="M931.134578 363.997867v126.714311h-244.167111V363.997867a49.857422 49.857422 0 0 1 49.857422-49.846045h144.463644a49.857422 49.857422 0 0 1 49.846045 49.846045z" fill="#C0EFFF" /><path d="M802.326756 314.151822a49.857422 49.857422 0 0 0-49.857423 49.857422V490.723556h-65.513244V364.009244a49.880178 49.880178 0 0 1 49.8688-49.857422h65.501867z" fill="#ACDDEA" /><path d="M165.000533 211.330844h233.813334v93.127112h-233.813334z" fill="#E6E6E6" /><path d="M165.000533 211.330844h72.715378v93.127112h-72.715378z" fill="#CCCCCC" /><path d="M224.4608 78.574933h114.926933v132.755911H224.4608z" fill="#E6E6E6" /><path d="M224.4608 78.574933h57.457778v132.755911h-57.457778z" fill="#CCCCCC" /><path d="M517.0176 677.410133a34.133333 34.133333 0 0 0-17.373867 4.744534 45.101511 45.101511 0 0 0-69.927822-26.794667 34.451911 34.451911 0 0 0-32.233244-22.402844 34.440533 34.440533 0 0 0-34.315378 31.709866 45.090133 45.090133 0 0 0-52.986311 44.396089 45.090133 45.090133 0 0 0 73.568711 34.963911 34.417778 34.417778 0 0 0 53.111467-10.843022 45.078756 45.078756 0 0 0 48.7424-7.236267 34.451911 34.451911 0 1 0 31.414044-48.5376z" fill="#E6E6E6" /><path d="M88.314311 811.337956c8.203378 0 14.859378-6.667378 14.859378-14.870756V364.839822a45.579378 45.579378 0 0 1 45.522489-45.522489h266.422044a45.568 45.568 0 0 1 45.522489 45.522489v240.423822a14.859378 14.859378 0 1 0 29.718756 0V364.839822a75.332267 75.332267 0 0 0-75.252623-75.241244h-1.444977v-78.267734c0-8.214756-6.644622-14.859378-14.859378-14.859377h-44.578133v-60.893867h101.558044c4.801422 0 8.715378 3.913956 8.715378 8.715378v6.144a14.859378 14.859378 0 1 0 29.718755 0v-6.144a38.479644 38.479644 0 0 0-38.434133-38.434134h-101.558044V78.574933c0-8.203378-6.644622-14.859378-14.848-14.859377H224.449422c-8.214756 0-14.859378 6.644622-14.859378 14.859377v117.896534h-44.589511c-8.214756 0-14.859378 6.644622-14.859377 14.859377v78.267734h-1.444978a75.343644 75.343644 0 0 0-75.252622 75.252622v431.627378c0.011378 8.192 6.667378 14.859378 14.870755 14.859378zM239.3088 93.434311h85.1968v103.037156h-85.1968V93.434311zM179.871289 226.190222h204.094578v63.408356H179.871289V226.190222zM881.277156 299.292444H736.824889a64.785067 64.785067 0 0 0-64.7168 64.7168v543.789512H525.038933a14.870756 14.870756 0 0 0 0 29.741511h406.084267c8.214756 0 14.870756-6.667378 14.870756-14.870756V623.104a14.859378 14.859378 0 1 0-29.730134 0v284.694756H701.826844V505.582933h50.642489a14.859378 14.859378 0 1 0 0-29.718755h-50.642489v-111.843556a35.043556 35.043556 0 0 1 34.998045-34.998044h144.452267a35.043556 35.043556 0 0 1 34.998044 34.998044v111.843556H801.9968a14.859378 14.859378 0 0 0 0 29.718755h114.2784v64.022756a14.870756 14.870756 0 1 0 29.730133 0v-205.596445a64.785067 64.785067 0 0 0-64.728177-64.7168z" fill="" /><path d="M475.500089 907.798756h-77.869511a73.193244 73.193244 0 0 1-73.1136-73.1136v-14.756978h314.424889a14.859378 14.859378 0 1 0 0-29.730134H357.398756v-0.295822c0-7.3728 1.547378-14.620444 4.5056-21.265066a59.926756 59.926756 0 0 0 21.890844-6.849423 49.243022 49.243022 0 0 0 58.948267-11.025066 59.869867 59.869867 0 0 0 38.957511-4.516978 49.322667 49.322667 0 0 0 35.316622 14.927644 49.379556 49.379556 0 0 0 42.1888-23.779555h79.746844a14.848 14.848 0 1 0 0-29.718756H566.158222a49.379556 49.379556 0 0 0-57.856-44.361955 59.619556 59.619556 0 0 0-52.599466-31.072711c-7.042844 0-13.9264 1.206044-20.411734 3.561244a49.504711 49.504711 0 0 0-37.796978-17.726578c-20.502756 0-38.468267 12.856889-45.784177 31.118222a60.017778 60.017778 0 0 0-56.388267 59.847112 60.074667 60.074667 0 0 0 36.511289 55.1936 82.090667 82.090667 0 0 0-4.152889 25.656888l0.011378 0.295823h-18.0224c-8.203378 0-14.859378 6.656-14.859378 14.859377v29.627734a102.559289 102.559289 0 0 0 30.606222 73.124978H103.173689v-61.815467a14.859378 14.859378 0 1 0-29.718756 0v76.663467c0 8.214756 6.644622 14.870756 14.859378 14.870755h387.185778a14.870756 14.870756 0 0 0 0-29.718755zM355.259733 678.820978c1.729422 0 3.527111 0.170667 5.313423 0.489244 4.118756 0.728178 8.362667-0.318578 11.6736-2.889955a14.791111 14.791111 0 0 0 5.723022-10.581334 19.649422 19.649422 0 0 1 19.501511-18.0224c8.112356 0 15.473778 5.12 18.3296 12.743111a14.870756 14.870756 0 0 0 22.482489 6.929067c5.12-3.606756 11.138844-5.518222 17.396622-5.518222 14.199467 0 26.3168 9.659733 29.468444 23.472355a14.882133 14.882133 0 0 0 22.004623 9.5232c3.060622-1.786311 6.371556-2.696533 9.864533-2.696533 10.797511 0 19.603911 8.783644 19.603911 19.592533s-8.795022 19.603911-19.603911 19.603912c-7.691378 0-14.700089-4.551111-17.863111-11.605334a14.836622 14.836622 0 0 0-23.415467-5.0176 30.162489 30.162489 0 0 1-32.6656 4.846934 14.859378 14.859378 0 0 0-19.501511 6.8608 19.501511 19.501511 0 0 1-30.185244 6.189511 14.848 14.848 0 0 0-19.023645-0.216178 29.923556 29.923556 0 0 1-19.091911 6.792533 30.276267 30.276267 0 0 1-30.242133-30.242133 30.264889 30.264889 0 0 1 30.230755-30.253511z" fill="" /></svg>