<?xml version="1.0" encoding="utf-8"?>
<!-- Uploaded to: SVG Repo, www.svgrepo.com, Generator: SVG Repo Mixer Tools -->
<svg width="800px" height="800px" viewBox="0 0 64 64" xmlns="http://www.w3.org/2000/svg">
<title>egypt</title>
<g id="egypt">
<circle cx="24.5" cy="25.5" r="22.5" style="fill:#edebdc"/>
<line x1="2" y1="54" x2="62" y2="54" style="fill:none;stroke:#4c241d;stroke-linecap:round;stroke-linejoin:round;stroke-width:2px"/>
<polygon points="4.309 46.085 17.481 31.778 32 46 4.309 46.085" style="fill:#ffce56;stroke:#4c241d;stroke-linecap:round;stroke-linejoin:round;stroke-width:2px"/>
<polygon points="12 46 31.608 25.5 54 46 12 46" style="fill:#ffce56;stroke:#4c241d;stroke-linecap:round;stroke-linejoin:round;stroke-width:2px"/>
<line x1="31.608" y1="25.5" x2="27.495" y2="45.306" style="fill:none;stroke:#4c241d;stroke-linecap:round;stroke-linejoin:round;stroke-width:2px"/>
<path d="M7.232,54h0a6.1,6.1,0,0,1,.557-7.14l2.851-3.352A7.121,7.121,0,0,1,16.064,41H41.118a4.839,4.839,0,0,1,4.364,2.747L48,49h6.372a5.2,5.2,0,0,1,4.88,3.405L59.839,54Z" style="fill:#fc8c29;stroke:#4c241d;stroke-linecap:round;stroke-linejoin:round;stroke-width:2px"/>
<path d="M26.342,53.868l-.437-2.082a3.451,3.451,0,0,0-3.377-2.742H15.911l1.57-1.569" style="fill:none;stroke:#4c241d;stroke-linecap:round;stroke-linejoin:round;stroke-width:2px"/>
<line x1="36.316" y1="49.044" x2="39.219" y2="53.435" style="fill:none;stroke:#4c241d;stroke-linecap:round;stroke-linejoin:round;stroke-width:2px"/>
<line x1="49" y1="49" x2="44.165" y2="49.044" style="fill:none;stroke:#4c241d;stroke-linecap:round;stroke-linejoin:round;stroke-width:2px"/>
<rect x="33" y="38" width="10" height="3" style="fill:#fc8c29;stroke:#4c241d;stroke-linecap:round;stroke-linejoin:round;stroke-width:2px"/>
<path d="M31.608,38.057l2.736-4.819a4.642,4.642,0,0,1,4.037-2.351H41.07a3.844,3.844,0,0,1,3.756,3.024l.908,4.146Z" style="fill:#fc8c29;stroke:#4c241d;stroke-linecap:round;stroke-linejoin:round;stroke-width:2px"/>
<line x1="39" y1="41" x2="39" y2="31" style="fill:none;stroke:#4c241d;stroke-linecap:round;stroke-linejoin:round;stroke-width:2px"/>
<line x1="20.833" y1="44" x2="18" y2="44" style="fill:none;stroke:#4c241d;stroke-linecap:round;stroke-linejoin:round;stroke-width:2px"/>
<line x1="40" y1="44" x2="25.333" y2="44" style="fill:none;stroke:#4c241d;stroke-linecap:round;stroke-linejoin:round;stroke-width:2px"/>
<line x1="47" y1="46" x2="60" y2="46" style="fill:none;stroke:#4c241d;stroke-linecap:round;stroke-linejoin:round;stroke-width:2px"/>
</g>
</svg>