<?xml version="1.0" encoding="iso-8859-1"?>
<!-- Uploaded to: SVG Repo, www.svgrepo.com, Generator: SVG Repo Mixer Tools -->
<svg height="800px" width="800px" version="1.1" id="Layer_1" xmlns="http://www.w3.org/2000/svg" xmlns:xlink="http://www.w3.org/1999/xlink" 
	 viewBox="0 0 512 512" xml:space="preserve">
<polygon style="fill:#66DEFE;" points="503.83,376.647 503.83,507.915 471.149,507.915 427.574,352.768 "/>
<polygon style="fill:#B3EFFF;" points="471.149,376.647 471.149,507.915 8.17,507.915 8.17,377.191 166.051,311.83 345.949,311.83 
	"/>
<path style="fill:#4393A8;" d="M247.459,262.177c-4.052-23.617-26.983-42.943-50.949-42.943h-32.681l59.49,92.596H256
	L247.459,262.177z"/>
<path style="fill:#55B9D3;" d="M214.779,262.177l8.541,49.653h-84.077v-92.596h24.587
	C187.795,219.234,210.726,238.559,214.779,262.177z"/>
<path style="fill:#326E7D;" d="M146.279,196.815c-4.063-23.617-26.994-42.943-50.96-42.943l-3.824-22.256
	c-3.05-17.713-20.251-32.212-38.226-32.212H20.589l85.624,266.349l65.362-21.787L146.279,196.815z"/>
<path style="fill:#4393A8;" d="M113.599,196.815l25.295,147.151l-65.362,21.787L8.17,343.966V99.404h12.419
	c17.974,0,35.175,14.499,38.226,32.212l3.824,22.256C86.604,153.872,109.535,173.198,113.599,196.815z"/>
<polygon style="fill:#326E7D;" points="503.83,99.404 503.83,343.966 471.149,354.86 438.468,221.685 471.149,99.404 "/>
<path style="fill:#4393A8;" d="M471.149,99.404V354.86l-130.723-10.894l25.295-147.151c4.063-23.617,26.994-42.943,50.96-42.943
	l3.824-22.256c3.05-17.713,20.251-32.212,38.226-32.212H471.149z"/>
<path style="fill:#B3EFFF;" d="M182.468,343.966h-32.681v32.681h65.362C215.149,358.594,200.521,343.966,182.468,343.966z"/>
<path style="fill:#D9F7FF;" d="M149.787,343.966H8.17v32.681h174.298C182.468,358.594,167.84,343.966,149.787,343.966z"/>
<g>
	<path style="fill:#FFFFFF;" d="M416.681,418.043H8.17c-4.513,0-8.17-3.658-8.17-8.17c0-4.512,3.657-8.17,8.17-8.17h408.511
		c4.513,0,8.17,3.658,8.17,8.17C424.851,414.384,421.194,418.043,416.681,418.043z"/>
	<path style="fill:#FFFFFF;" d="M503.83,450.723H226.043c-4.513,0-8.17-3.658-8.17-8.17c0-4.512,3.657-8.17,8.17-8.17H503.83
		c4.513,0,8.17,3.658,8.17,8.17C512,447.065,508.343,450.723,503.83,450.723z"/>
	<path style="fill:#FFFFFF;" d="M193.362,450.723H95.319c-4.513,0-8.17-3.658-8.17-8.17c0-4.512,3.657-8.17,8.17-8.17h98.043
		c4.513,0,8.17,3.658,8.17,8.17C201.532,447.065,197.875,450.723,193.362,450.723z"/>
	<path style="fill:#FFFFFF;" d="M503.83,483.404h-98.043c-4.513,0-8.17-3.658-8.17-8.17c0-4.512,3.657-8.17,8.17-8.17h98.043
		c4.513,0,8.17,3.658,8.17,8.17C512,479.746,508.343,483.404,503.83,483.404z"/>
</g>
<path style="fill:#B3EFFF;" d="M324.085,99.404h-32.681v54.468h32.681c15.044,0,27.234-12.19,27.234-27.234
	S339.129,99.404,324.085,99.404z"/>
<path style="fill:#D9F7FF;" d="M291.404,99.404c15.044,0,27.234,12.19,27.234,27.234s-12.19,27.234-27.234,27.234H187.915
	c-15.044,0-27.234-12.19-27.234-27.234s12.19-27.234,27.234-27.234H291.404z"/>
<path style="fill:#B3EFFF;" d="M215.149,12.255h-32.681v54.468h32.681c15.044,0,27.234-12.19,27.234-27.234
	S230.193,12.255,215.149,12.255z"/>
<g>
	<path style="fill:#D9F7FF;" d="M182.468,12.255c15.044,0,27.234,12.19,27.234,27.234s-12.19,27.234-27.234,27.234h-49.021
		c-15.044,0-27.234-12.19-27.234-27.234s12.19-27.234,27.234-27.234H182.468z"/>
	<polygon style="fill:#D9F7FF;" points="503.83,376.647 471.149,376.647 438.468,360.852 471.149,343.966 503.83,343.966 	"/>
</g>
<path style="fill:#FFFFFF;" d="M329.532,343.966c-18.053,0-32.681,14.628-32.681,32.681h174.298v-32.681H329.532z"/>
<path d="M152.511,126.638c0,19.521,15.882,35.404,35.404,35.404h81.702c4.513,0,8.17-3.658,8.17-8.17c0-4.512-3.657-8.17-8.17-8.17
	h-81.702c-10.511,0-19.064-8.553-19.064-19.064c0-10.511,8.553-19.064,19.064-19.064h136.17c10.511,0,19.064,8.553,19.064,19.064
	c0,10.511-8.553,19.064-19.064,19.064h-21.787c-4.513,0-8.17,3.658-8.17,8.17c0,4.512,3.657,8.17,8.17,8.17h21.787
	c19.522,0,35.404-15.883,35.404-35.404s-15.882-35.404-35.404-35.404h-136.17C168.392,91.234,152.511,107.117,152.511,126.638z"/>
<path d="M133.447,74.894h81.702c19.522,0,35.404-15.883,35.404-35.404S234.671,4.085,215.149,4.085h-81.702
	c-19.522,0-35.404,15.883-35.404,35.404S113.924,74.894,133.447,74.894z M133.447,20.426h81.702
	c10.511,0,19.064,8.553,19.064,19.064s-8.553,19.064-19.064,19.064h-81.702c-10.511,0-19.064-8.553-19.064-19.064
	S122.936,20.426,133.447,20.426z"/>
<path d="M0,376.647c0,4.512,3.657,8.17,8.17,8.17h206.979c4.513,0,8.17-3.658,8.17-8.17c0-22.526-18.325-40.851-40.851-40.851
	h-4.008l-24.132-140.363c-4.319-25.121-26.895-45.95-52.044-49.27l-2.74-15.935c-3.697-21.501-24.453-38.994-46.271-38.994H8.17
	c-4.513,0-8.17,3.658-8.17,8.17c0,4.512,3.657,8.17,8.17,8.17h45.104c13.982,0,27.797,11.642,30.166,25.422l3.827,22.26
	c0.674,3.921,4.073,6.786,8.053,6.786c19.887,0,39.536,16.558,42.906,36.158l23.655,137.595H8.17c-4.513,0-8.17,3.658-8.17,8.17
	c0,4.512,3.657,8.17,8.17,8.17h163.37c0.049,0,10.927,0,10.927,0c10.652,0,19.738,6.83,23.111,16.34H8.17
	C3.657,368.477,0,372.135,0,376.647z"/>
<path d="M329.532,352.136h10.878c0.049,0,163.42,0,163.42,0c4.513,0,8.17-3.658,8.17-8.17c0-4.512-3.657-8.17-8.17-8.17H350.12
	l23.655-137.595c3.369-19.6,23.018-36.158,42.906-36.158c3.978,0,7.377-2.865,8.053-6.786l3.827-22.259
	c2.369-13.78,16.184-25.422,30.166-25.422h45.104c4.513,0,8.17-3.658,8.17-8.17c0-4.512-3.657-8.17-8.17-8.17h-45.104
	c-21.817,0-42.573,17.493-46.271,38.994l-2.74,15.934c-25.149,3.319-47.726,24.149-52.044,49.27L333.54,335.796h-4.008
	c-22.526,0-40.851,18.325-40.851,40.851c0,4.512,3.657,8.17,8.17,8.17H503.83c4.513,0,8.17-3.658,8.17-8.17
	c0-4.512-3.657-8.17-8.17-8.17H306.421C309.794,358.966,318.88,352.136,329.532,352.136z"/>
<path d="M190.561,311.83c0,4.512,3.657,8.17,8.17,8.17h57.212c0.097,0,57.327,0,57.327,0c4.513,0,8.17-3.658,8.17-8.17
	c0-4.512-3.657-8.17-8.17-8.17h-50.384l-7.37-42.866c-4.714-27.42-31.186-49.729-59.01-49.729h-13.694
	c-4.513,0-8.17,3.658-8.17,8.17s3.657,8.17,8.17,8.17h13.694c19.887,0,39.536,16.558,42.906,36.158l6.893,40.097h-47.575
	C194.218,303.66,190.561,307.318,190.561,311.83z"/>
</svg>