<?xml version="1.0" encoding="iso-8859-1"?>
<!-- Uploaded to: SVG Repo, www.svgrepo.com, Generator: SVG Repo Mixer Tools -->
<svg height="800px" width="800px" version="1.1" id="Layer_1" xmlns="http://www.w3.org/2000/svg" xmlns:xlink="http://www.w3.org/1999/xlink" 
	 viewBox="0 0 512 512" xml:space="preserve">
<path style="fill:#3EAC92;" d="M416.257,398.107c1.918-27.394-72.954-21.077-84.13-46.985s9.504-75.214-34.783-95.369
	s-71.042,23.498-42.157,35.471s25.438,42.348,23.397,54.774c-2.04,12.426-18.852,41.059,18.761,60.282
	c37.613,19.221,39.66,33.066,39.66,33.066S424.196,451.4,422.44,451.4C420.685,451.4,416.257,398.107,416.257,398.107z"/>
<path style="fill:#57EECF;" d="M305.697,357.29c2.151,0.26,4.183,1.41,5.502,3.337c0.272,0.393,16.108,23.009,46.178,39.964
	c37.194,20.971,30.211,48.021,29.895,49.162l-15.032-4.156l-0.038,0.147c0.159-0.681,3.584-16.869-22.484-31.569
	c-33.511-18.894-50.68-43.701-51.394-44.748c-2.428-3.557-1.513-8.409,2.045-10.837C301.993,357.482,303.887,357.071,305.697,357.29
	z"/>
<path style="fill:#B8D6FD;" d="M43.087,39.848c16.299-15.836,45.26-38.331,78.272-38.331c50.944,0,92.243,53.571,92.243,53.571
	s-41.299,53.571-92.243,53.571c-33.727,0-63.227-23.481-79.314-39.351L43.087,39.848z"/>
<path style="fill:#328777;" d="M51.406,510.484c0,0,12.477-49.906,59.264-50.946c46.787-1.04,34.311-30.152,55.105-39.509
	c20.794-9.357,71.74,21.834,160.116,20.794c88.376-1.04,79.018-29.112,90.455-42.628c11.437-13.516,36.39-22.874,28.072-35.35
	s-34.311-122.687,3.119-155.957s-23.913-50.946-15.596-79.018s53.026-42.628,60.304-57.184S512,55.088,512,55.088v454.356H53.485"/>
<path style="fill:#266659;" d="M492.245,70.684c-1.076,2.152-2.985,4.305-5.459,6.5v362.825c0,24.012-19.466,43.477-43.477,43.477
	H64.904c-10.052,13.226-13.499,26.998-13.499,26.998l2.079-1.04H512V55.088C512,55.088,499.523,56.128,492.245,70.684z"/>
<path style="fill:#3C66B1;" d="M3.075,15.579l46.486,30.506c6.618,4.343,6.618,14.044,0,18.387l-7.88,5.172L3.075,94.98
	L18.863,55.47L3.075,15.579z"/>
<g>
	<path style="fill:#FFDA44;" d="M156.417,41.052H90.915c-4.307,0-7.798-3.49-7.798-7.798s3.491-7.798,7.798-7.798h65.502
		c4.307,0,7.798,3.49,7.798,7.798S160.724,41.052,156.417,41.052z"/>
	<path style="fill:#FFDA44;" d="M156.417,83.68H90.915c-4.307,0-7.798-3.49-7.798-7.798s3.491-7.798,7.798-7.798h65.502
		c4.307,0,7.798,3.49,7.798,7.798S160.724,83.68,156.417,83.68z"/>
</g>
<g>
	<path style="fill:#3C66B1;" d="M175.341,21.03c0.078-0.113,0.142-0.231,0.213-0.347c-4.22-2.829-8.709-5.523-13.427-7.942
		c-18.572,27.478-18.883,59.599-0.801,86.095c4.722-2.377,9.222-5.036,13.456-7.836c-0.145-0.277-0.302-0.55-0.482-0.813
		C159.771,69.011,160.16,43.157,175.341,21.03z"/>
	<path style="opacity:0.11;fill:#3C66B1;enable-background:new    ;" d="M214.1,55.088c0,0-4.055-5.26-11.19-12.482
		c-5.848,6.717-18.556,20.138-35.472,31.285c0.069,0.12,0.148,0.235,0.211,0.357c-4.234,2.8-8.734,5.46-13.456,7.836
		c-0.084-0.124-0.162-0.25-0.245-0.373c-12.031,6.02-25.5,10.198-39.722,10.198c-33.687,0-63.154-23.423-79.254-39.293l-0.423,0.278
		L15.36,65.484L3.575,94.98L42.18,69.644l0.423-0.278c16.1,15.87,45.568,39.293,79.254,39.293c14.222,0,27.692-4.178,39.722-10.198
		c0.083,0.124,0.161,0.25,0.245,0.373c4.722-2.377,9.222-5.036,13.456-7.836c-0.063-0.121-0.142-0.237-0.211-0.357
		C198.684,75.084,214.1,55.088,214.1,55.088z"/>
</g>
<path style="fill:#B8D6FD;" d="M215.887,158.628c9.788-20.509,29.139-51.658,60.097-63.119
	c47.776-17.686,105.103,18.217,105.103,18.217s-20.133,64.576-67.908,82.261c-31.63,11.708-67.446-0.071-88.042-9.37
	L215.887,158.628z"/>
<path style="fill:#3C66B1;" d="M169.939,149.759l54.185,12.471c7.714,1.776,11.081,10.873,6.383,17.244l-5.595,7.585l-27.409,37.162
	l1.09-42.533L169.939,149.759z"/>
<g>
	<path style="fill:#FFDA44;" d="M322.587,120.415l-61.429,22.74c-4.038,1.495-8.525-0.567-10.02-4.606
		c-1.495-4.039,0.567-8.525,4.606-10.02l61.429-22.74c4.038-1.495,8.525,0.567,10.02,4.606
		C328.688,114.435,326.625,118.92,322.587,120.415z"/>
	<path style="fill:#FFDA44;" d="M337.385,160.392l-61.429,22.74c-4.038,1.495-8.525-0.567-10.02-4.606s0.567-8.525,4.606-10.02
		l61.429-22.74c4.038-1.495,8.525,0.567,10.02,4.606C343.486,154.412,341.423,158.897,337.385,160.392z"/>
</g>
<g>
	<path style="fill:#3C66B1;" d="M333.383,95.069c0.033-0.133,0.053-0.266,0.079-0.399c-4.94-1.188-10.085-2.156-15.349-2.787
		c-7.879,32.217,2.981,62.448,29.137,81.018c3.604-3.869,6.901-7.925,9.899-12.02c-0.232-0.209-0.473-0.411-0.735-0.596
		C335.437,145.47,326.828,121.091,333.383,95.069z"/>
	<path style="opacity:0.11;fill:#3C66B1;enable-background:new    ;" d="M381.555,113.553c0,0-5.629-3.525-14.827-7.821
		c-3.152,8.329-10.411,25.327-22.406,41.654c0.106,0.088,0.22,0.169,0.322,0.261c-2.999,4.096-6.294,8.152-9.899,12.02
		c-0.123-0.086-0.238-0.178-0.36-0.265c-9.192,9.821-20.374,18.415-33.712,23.353c-31.592,11.695-67.358-0.043-87.966-9.336
		l-0.3,0.408l-13.623,18.47l-0.813,31.752l27.41-37.162l0.3-0.408c20.608,9.294,56.374,21.03,87.966,9.336
		c13.339-4.938,24.52-13.531,33.712-23.353c0.122,0.087,0.238,0.179,0.36,0.265c3.604-3.869,6.901-7.925,9.899-12.02
		c-0.102-0.091-0.215-0.173-0.322-0.261C374.038,137.658,381.555,113.553,381.555,113.553z"/>
</g>
<path style="fill:#B8D6FD;" d="M59.967,270.509c21.554-7.199,57.407-14.903,87.151-0.583c45.901,22.099,59.873,88.281,59.873,88.281
	s-60.449,30.353-106.351,8.254c-30.389-14.631-46.783-48.584-54.393-69.862L59.967,270.509z"/>
<path style="fill:#3C66B1;" d="M34.443,231.286l28.65,47.652c4.079,6.783-0.13,15.525-7.976,16.567l-9.343,1.241L0,302.827
	l31.363-28.75L34.443,231.286z"/>
<g>
	<path style="fill:#FFDA44;" d="M161.555,320.755l-59.018-28.414c-3.88-1.868-5.512-6.528-3.643-10.409
		c1.868-3.881,6.528-5.512,10.409-3.643l59.018,28.414c3.88,1.868,5.512,6.528,3.643,10.409
		C170.096,320.992,165.436,322.623,161.555,320.755z"/>
	<path style="fill:#FFDA44;" d="M143.064,359.164L84.045,330.75c-3.88-1.868-5.512-6.527-3.643-10.409
		c1.868-3.881,6.528-5.512,10.409-3.643l59.018,28.414c3.88,1.868,5.512,6.527,3.643,10.409
		C151.604,359.401,146.944,361.032,143.064,359.164z"/>
</g>
<g>
	<path style="fill:#3C66B1;" d="M187.291,310.925c0.12-0.069,0.229-0.147,0.342-0.22c-2.574-4.379-5.451-8.754-8.653-12.981
		c-28.654,16.701-42.867,45.508-38.068,77.226c5.286-0.093,10.494-0.538,15.524-1.224c-0.01-0.312-0.033-0.626-0.082-0.942
		C152.45,347.401,164.015,324.277,187.291,310.925z"/>
	<path style="opacity:0.11;fill:#3C66B1;enable-background:new    ;" d="M207.441,358.424c0,0-1.372-6.498-4.668-16.101
		c-8.183,3.515-25.454,10.096-45.532,12.801c0.01,0.137,0.031,0.277,0.035,0.413c-5.03,0.686-10.237,1.131-15.524,1.224
		c-0.023-0.148-0.037-0.295-0.059-0.443c-13.451,0.205-27.399-1.874-40.214-8.043c-30.352-14.613-46.743-48.5-54.365-69.783
		l-0.502,0.067l-22.75,3.022L0.45,303.044l45.775-6.081l0.502-0.067c7.622,21.283,24.012,55.17,54.365,69.783
		c12.815,6.17,26.763,8.248,40.214,8.043c0.022,0.148,0.036,0.295,0.059,0.443c5.286-0.093,10.494-0.538,15.524-1.224
		c-0.004-0.136-0.025-0.276-0.035-0.413C184.876,369.753,207.441,358.424,207.441,358.424z"/>
</g>
</svg>